<svg xmlns="http://www.w3.org/2000/svg" viewBox="0 0 49.195 49.195" width="512" height="512"><g fill="#FFF"><path d="M30.757 21.106l-.1-.023c-5.739-1.025-9.104-2.565-9.113-2.565-.559-.317-1.235-.815-1.287-1.384-.047-.518.425-1.079.668-1.309 5.583-2.843 8.056.639 8.16.79 1.567 2.316 3.169 3.584 4.761 3.77 1.384.16 2.221-.568 2.293-.635 1.15-1.009 1.734-2.19 1.736-3.508.004-2.557-2.28-4.605-2.357-4.673C28.83 5.335 18.424 8.911 18 9.063c-8.427 2.831-6.673 10.743-6.655 10.822l.033.111c2.495 6.903 13.004 7.799 13.45 7.834 5.022.397 5.234 2.798 5.243 2.933.181 2.528-4.259 3.277-4.884 3.37-4.383-.244-5.414-1.952-5.415-1.952l-.102-.167c-2.292-3.032-3.185-4.084-5.142-4.134-1.64-.054-2.598.614-3.117 1.174-1.311 1.413-1.142 3.5-1.119 3.733l.023.131c1.931 8.077 12.548 7.991 12.926 7.985.62.038 1.215.056 1.788.056 13.295 0 14.206-9.661 14.212-9.745.575-5.907-5.298-9.195-8.484-10.108zm6.494 9.936c-.027.354-.832 8.66-13.964 7.865-.096-.003-9.392.065-11.006-6.374-.012-.264-.027-1.444.598-2.117.352-.379.877-.56 1.599-.535.909.023 1.29.291 3.556 3.284.329.565 1.915 2.708 7.146 2.971l.082.004.081-.009c2.623-.298 6.99-1.793 6.727-5.455-.003-.175-.148-4.292-7.084-4.84-.096-.007-9.599-.812-11.704-6.461-.136-.648-1.108-6.245 5.371-8.421.097-.034 9.693-3.338 15.521 2.095.476.425 1.71 1.829 1.704 3.197-.003.727-.349 1.382-1.074 2.019-.002.001-.278.185-.725.136-.556-.065-1.729-.528-3.331-2.896-.035-.052-3.555-5.189-10.852-1.396l-.17.112c-.165.134-1.605 1.361-1.461 3.078.098 1.157.869 2.153 2.362 2.997.145.067 3.596 1.665 9.621 2.747.615.19 7.538 2.482 7.003 7.999z"/><path d="M47.97 28.878c.351-1.937 1.819-12.481-6.029-20.194-.628-.735-7.77-8.683-20.948-6.888C19.237.884 10.867-2.865 3.798 4.288c-.066.068-6.451 6.886-2.128 15.668-.312 1.398-1.109 6.262 1.17 12.228.123.442 3.143 10.861 14.564 14.266.207.079 5.072 1.904 11.366 1.34.838.373 3.446 1.404 6.637 1.404 3.031 0 6.586-.93 9.651-4.24.428-.434 6.318-6.658 2.912-16.076zm-4.344 14.681l-.025.026c-5.923 6.412-13.864 2.467-14.199 2.295l-.264-.135-.292.029c-5.934.591-10.682-1.175-10.798-1.217C7.64 41.453 4.794 31.744 4.738 31.56c-2.432-6.377-1.061-11.4-1.047-11.448l.111-.384-.185-.354C-.371 11.722 5.013 5.914 5.232 5.683c6.765-6.848 14.721-2.195 15.056-1.995l.308.187.356-.053c12.581-1.857 19.212 5.854 19.487 6.182l.07.076c7.725 7.557 5.473 18.561 5.449 18.671l-.062.289.104.275c3.202 8.473-2.144 14.012-2.374 14.244z"/></g></svg>